<svg width="116" height="34" viewBox="0 0 116 34" fill="none" xmlns="http://www.w3.org/2000/svg">
<rect width="116" height="34" rx="4" fill="#383B40"/>
<path fill-rule="evenodd" clip-rule="evenodd" d="M103.44 33H12.56C11.1462 33 10 31.8538 10 30.44V3.56C10 2.14624 11.1462 1 12.56 1H103.44C104.854 1 106 2.14624 106 3.56V30.44C106 31.8538 104.854 33 103.44 33Z" fill="#383B40"/>
<path d="M21.2327 26.8816L20.7911 24.9021H18.4404L18.0161 26.8816H15.6826L18.4397 15.0928H20.8788L23.7069 26.8816H21.2327ZM20.4372 23.0819C20.1895 21.9511 19.9425 20.8375 19.7658 19.6887C19.6948 19.176 19.6244 18.6461 19.5713 18.1335C19.465 19.7949 19.1297 21.4384 18.7937 23.0826H20.4372V23.0819Z" fill="white"/>
<path d="M29.369 17.7616C28.8916 17.3552 28.3437 17.0019 27.6903 17.0019C27.001 17.0019 26.5236 17.4614 26.5236 18.1507C26.5236 20.1834 30.0583 20.1482 30.0583 23.4352C30.0583 25.4678 28.8385 27.0762 26.7002 27.0762C25.9757 27.0762 25.2685 26.8816 24.6676 26.4752V24.248C25.1975 24.6013 25.746 24.8842 26.3994 24.8842C27.1949 24.8842 27.778 24.3894 27.778 23.576C27.778 23.3642 27.7428 23.1696 27.6545 22.975C27.4426 22.5334 26.7885 22.1443 26.3994 21.8794C25.074 20.9603 24.2253 20.1117 24.2253 18.3978C24.2253 16.5418 25.3037 14.9162 27.3005 14.9162C28.0961 14.9162 28.6791 15.0928 29.3684 15.4819V17.7616H29.369Z" fill="white"/>
<path d="M35.5257 26.8816L33.3516 20.8899V26.8816H31.0188V15.0928H33.3516V20.36L35.3132 15.0928H37.6991L35.525 20.5367L37.9641 26.8816H35.5257Z" fill="white"/>
<path d="M45.8235 20.3248C45.8414 20.625 45.8414 20.9258 45.8414 21.2259C45.8414 22.0566 45.8062 22.9053 45.6296 23.7181C45.2405 25.5382 44.0564 27.0762 42.0596 27.0762C38.8782 27.0762 37.8708 23.647 37.8708 21.0314C37.8708 18.3274 38.7547 14.9162 42.0596 14.9162C43.8625 14.9162 45.0286 16.047 45.524 17.7085L43.2616 18.5923C43.1553 17.903 42.9614 16.9661 42.0776 16.9661C40.4872 16.9661 40.363 19.8826 40.363 20.9962C40.363 22.1629 40.4161 24.9552 42.0948 24.9552C43.3672 24.9552 43.5086 23.3648 43.5265 22.4099H42.0417V20.3242H45.8235V20.3248Z" fill="white"/>
<path d="M51.5619 26.8816L51.1203 24.9021H48.7696L48.3453 26.8816H46.0125L48.7696 15.0928H51.2086L54.0368 26.8816H51.5619ZM50.767 23.0819C50.5193 21.9511 50.2723 20.8375 50.0956 19.6887C50.0246 19.176 49.9542 18.6461 49.9011 18.1335C49.7949 19.7949 49.4595 21.4384 49.1235 23.0826H50.767V23.0819Z" fill="white"/>
<path d="M62.9855 26.8816L62.4025 18.3978C62.3494 19.3168 62.2079 20.2179 62.0492 21.1197L61.0066 26.8816H59.2217L58.126 21.544C58.0025 20.961 57.8783 20.3773 57.8258 19.7763L57.6844 18.3978L57.3132 26.8816H54.821L55.8463 15.0928H58.9215L60.0703 22.0567L61.0073 15.0928H64.1535L65.3727 26.8816H62.9855Z" fill="white"/>
<path d="M68.8282 15.0928C69.4471 15.0928 70.4897 15.128 71.3025 15.9235C71.9387 16.5424 72.2746 17.5139 72.2746 18.4688C72.2746 19.0519 72.1511 19.6355 71.7268 20.1482C71.5322 20.3779 71.2321 20.6608 70.7898 20.8375C71.5495 21.1203 71.9207 21.6503 72.0622 21.88C72.3982 22.4458 72.4686 23.0999 72.4686 23.5415C72.4686 24.4253 72.2388 25.2208 71.5847 25.8743C70.6836 26.7754 69.499 26.8816 68.8097 26.8816H66.3354V15.0928H68.8282ZM68.6695 19.9357C69.0407 19.9178 69.465 19.7591 69.6948 19.5293C70.0308 19.1933 70.066 18.6986 70.066 18.4336C70.066 18.1507 70.0308 17.7091 69.6948 17.3731C69.5002 17.1786 69.1822 17.0199 68.6695 17.0199V19.9357ZM68.6695 24.8669C69.0407 24.8669 69.465 24.7434 69.73 24.4957C69.9777 24.2659 70.1716 23.8595 70.1716 23.3469C70.1716 22.7811 69.9771 22.3568 69.7121 22.1098C69.4292 21.8621 69.0049 21.7386 68.6695 21.7386V24.8669V24.8669Z" fill="white"/>
<path d="M73.5969 26.8816V15.0928H75.9297V24.6723H78.3688V26.8816H73.5969Z" fill="white"/>
<path d="M79.3293 26.8816V15.0928H84.0129V17.2842H81.6621V19.8295H83.73V22.0567H81.6621V24.7075H84.0481V26.8816H79.3293Z" fill="white"/>
<path d="M89.575 26.8816L87.5071 21.4557V26.8816H85.1743V15.0928H87.7017C88.5676 15.0928 89.5218 15.1639 90.2642 15.6586C91.2012 16.2775 91.6607 17.4263 91.6607 18.5219C91.6607 19.8653 91.1308 20.8195 89.982 21.5267L92.0319 26.8823H89.575V26.8816ZM87.5065 20.1655C87.63 20.1834 87.7714 20.1834 87.8956 20.1834C88.903 20.1834 89.3977 19.4941 89.3977 18.5399C89.3977 17.5856 88.9734 16.9315 87.9487 16.9315H87.5071V20.1655H87.5065Z" fill="white"/>
<path d="M97.6935 17.7616C97.216 17.3552 96.6682 17.0019 96.0148 17.0019C95.3255 17.0019 94.848 17.4614 94.848 18.1507C94.848 20.1834 98.3828 20.1482 98.3828 23.4352C98.3828 25.4678 97.1629 27.0762 95.0247 27.0762C94.3002 27.0762 93.593 26.8816 92.9921 26.4752V24.248C93.522 24.6013 94.0704 24.8842 94.7239 24.8842C95.5194 24.8842 96.1025 24.3894 96.1025 23.576C96.1025 23.3642 96.0672 23.1696 95.9789 22.975C95.7671 22.5334 95.113 22.1443 94.7239 21.8794C93.3984 20.9603 92.5498 20.1117 92.5498 18.3978C92.5498 16.5418 93.6282 14.9162 95.625 14.9162C96.4205 14.9162 97.0036 15.0928 97.6929 15.4819V17.7616H97.6935Z" fill="white"/>
<path d="M100.188 18.2115C101.036 18.2115 101.723 17.5244 101.723 16.6768C101.723 15.8292 101.036 15.1421 100.188 15.1421C99.3407 15.1421 98.6536 15.8292 98.6536 16.6768C98.6536 17.5244 99.3407 18.2115 100.188 18.2115Z" fill="white"/>
<path d="M30.1073 12.7773L29.0174 10.8054H28.1521V12.7773H26.9707V7.22784H29.5665C30.723 7.22784 31.4385 7.98496 31.4385 9.01664C31.4385 9.99008 30.8145 10.5232 30.2155 10.664L31.4718 12.7773H30.1073ZM30.2238 9.00896C30.2238 8.55136 29.8661 8.26848 29.4001 8.26848H28.1521V9.76608H29.4001C29.8661 9.76544 30.2238 9.4832 30.2238 9.00896Z" fill="white"/>
<path d="M33.1526 12.7773V7.22784H37.0796V8.26784H34.334V9.43264H37.0214V10.4726H34.334V11.7373H37.0796V12.7773H33.1526Z" fill="white"/>
<path d="M40.3909 12.7773L38.2527 7.22784H39.5922L41.1314 11.4877L42.6706 7.22784H44.0101L41.8719 12.7773H40.3909Z" fill="white"/>
<path d="M45.3574 12.7773V7.22784H46.5389V12.7773H45.3574Z" fill="white"/>
<path d="M48.469 12.7773V7.22784H52.396V8.26784H49.6504V9.43264H52.3378V10.4726H49.6504V11.7373H52.396V12.7773H48.469Z" fill="white"/>
<path d="M58.3948 12.7773L57.4214 8.96672L56.4563 12.7773H55.2L53.6108 7.22784H54.9337L55.9072 11.2381L56.9638 7.22784H57.8873L58.9356 11.2381L59.9091 7.22784H61.232L59.6512 12.7773H58.3948Z" fill="white"/>
<path d="M62.6216 12.7773V7.22784H66.5486V8.26784H63.803V9.43264H66.4904V10.4726H63.803V11.7373H66.5486V12.7773H62.6216Z" fill="white"/>
<path d="M68.304 12.7773V7.22784H70.4921C72.231 7.22784 73.4374 8.3344 73.4374 9.9984C73.4374 11.679 72.231 12.7773 70.5004 12.7773H68.304V12.7773ZM72.2316 9.99904C72.2316 9.0256 71.6326 8.26848 70.5011 8.26848H69.486V11.7379H70.4928C71.591 11.7373 72.2316 10.9475 72.2316 9.99904Z" fill="white"/>
<path d="M78.0801 12.7773V7.22784H81.0004C82.057 7.22784 82.5978 7.90176 82.5978 8.64224C82.5978 9.3328 82.1652 9.80704 81.641 9.9152C82.2401 10.0067 82.706 10.5808 82.706 11.2714C82.706 12.111 82.1569 12.7773 81.0919 12.7773H78.0801ZM81.3914 8.85088C81.3914 8.50976 81.1418 8.26848 80.7425 8.26848H79.2615V9.43328H80.7425C81.1418 9.43328 81.3914 9.208 81.3914 8.85088ZM81.4996 11.105C81.4996 10.7555 81.25 10.4733 80.7924 10.4733H79.2615V11.7379H80.7924C81.2334 11.7373 81.4996 11.5043 81.4996 11.105Z" fill="white"/>
<path d="M85.7261 12.7773V10.5059L83.5962 7.22784H84.944L86.3168 9.44928L87.6896 7.22784H89.0292L86.9075 10.5059V12.7773H85.7261Z" fill="white"/>
</svg>
