<svg xmlns="http://www.w3.org/2000/svg" xmlns:xlink="http://www.w3.org/1999/xlink" width="146.7" height="40" viewBox="0 0 146.7 40"><defs><style>.cls-1{fill:#525252;}.cls-2{fill:url(#Áåçûìÿííûé_ãðàäèåíò_312);}.cls-3{fill:url(#radial-gradient);}.cls-4{fill:url(#radial-gradient-2);}.cls-5{fill:url(#radial-gradient-3);}.cls-6{fill:url(#radial-gradient-4);}.cls-7{fill:url(#radial-gradient-5);}.cls-8{fill:url(#radial-gradient-6);}.cls-9{fill:url(#radial-gradient-7);}.cls-10{fill:url(#radial-gradient-8);}.cls-11{fill:url(#radial-gradient-9);}.cls-12{fill:url(#radial-gradient-10);}.cls-13{fill:url(#Áåçûìÿííûé_ãðàäèåíò_6);}.cls-14{fill:url(#Áåçûìÿííûé_ãðàäèåíò_16);}.cls-15{fill:url(#Áåçûìÿííûé_ãðàäèåíò_17);}.cls-16{fill:#3c3c3c;}.cls-17{fill:url(#Áåçûìÿííûé_ãðàäèåíò_262);}.cls-18{mask:url(#mask);}.cls-19{fill:#fff;}.cls-20{mask:url(#mask-2);}.cls-21{fill:url(#Áåçûìÿííûé_ãðàäèåíò_71);}.cls-22{fill:url(#Áåçûìÿííûé_ãðàäèåíò_74);}.cls-23{fill:url(#Áåçûìÿííûé_ãðàäèåíò_80);}.cls-24{mask:url(#mask-3);}.cls-25{mask:url(#mask-4);}.cls-26{mask:url(#mask-5);}.cls-27{mask:url(#mask-6);}.cls-28{mask:url(#mask-7);}.cls-29{mask:url(#mask-8);}.cls-30{mask:url(#mask-9);}.cls-31{mask:url(#mask-10);}.cls-32{mask:url(#mask-11);}.cls-33{mask:url(#mask-12);}</style><linearGradient id="Áåçûìÿííûé_ãðàäèåíò_312" x1="72.94" y1="20.01" x2="72.94" y2="4.1" gradientUnits="userSpaceOnUse"><stop offset="0" stop-color="#363636"/><stop offset="0.24" stop-color="#454545"/><stop offset="0.69" stop-color="#6e6e6e"/><stop offset="1" stop-color="#8c8c8c"/></linearGradient><radialGradient id="radial-gradient" cx="2276.62" cy="59528.18" r="8.22" gradientTransform="matrix(-0.55, 0.13, 0, -0.08, 1622.6, 4585.35)" gradientUnits="userSpaceOnUse"><stop offset="0" stop-color="#8f8f8f"/><stop offset="0.17" stop-color="#636363"/><stop offset="0.33" stop-color="#404040"/><stop offset="0.5" stop-color="#242424"/><stop offset="0.66" stop-color="#101010"/><stop offset="0.83" stop-color="#040404"/><stop offset="1"/></radialGradient><radialGradient id="radial-gradient-2" cx="2823.93" cy="79259.9" r="6.43" gradientTransform="matrix(-0.21, 0.73, -0.05, -0.04, 4755.62, 1024.69)" xlink:href="#radial-gradient"/><radialGradient id="radial-gradient-3" cx="-2495.76" cy="-1018.96" r="9.68" gradientTransform="matrix(0.75, 0.23, -0.35, 0.49, 1510.13, 1093.43)" gradientUnits="userSpaceOnUse"><stop offset="0" stop-color="#fff"/><stop offset="0.01" stop-color="#f6f6f6"/><stop offset="0.05" stop-color="#c8c8c8"/><stop offset="0.09" stop-color="#9d9d9d"/><stop offset="0.14" stop-color="#777"/><stop offset="0.2" stop-color="#575757"/><stop offset="0.25" stop-color="#3b3b3b"/><stop offset="0.32" stop-color="#252525"/><stop offset="0.4" stop-color="#141414"/><stop offset="0.49" stop-color="#090909"/><stop offset="0.63" stop-color="#020202"/><stop offset="1"/></radialGradient><radialGradient id="radial-gradient-4" cx="-1392.81" cy="52383.52" r="8.22" gradientTransform="matrix(-0.04, -0.81, 0.05, -0.01, -2914.62, -456.91)" xlink:href="#radial-gradient"/><radialGradient id="radial-gradient-5" cx="717.18" cy="48269.68" r="4.52" gradientTransform="matrix(-0.41, -0.49, 0.04, -0.07, -1421.32, 3570.61)" xlink:href="#radial-gradient"/><radialGradient id="radial-gradient-6" cx="2522.45" cy="60031.98" r="8.22" xlink:href="#radial-gradient"/><radialGradient id="radial-gradient-7" cx="2952.37" cy="81386.83" r="6.43" gradientTransform="matrix(-0.36, 0.67, -0.04, -0.05, 4432.76, 1994.89)" xlink:href="#radial-gradient"/><radialGradient id="radial-gradient-8" cx="507.37" cy="49654.48" r="4.52" gradientTransform="matrix(-0.41, -0.49, 0.04, -0.07, -1421.32, 3570.61)" xlink:href="#radial-gradient"/><radialGradient id="radial-gradient-9" cx="-2384.78" cy="-794.12" r="9.85" gradientTransform="matrix(0.75, 0.23, -0.35, 0.49, 1642.72, 966.71)" xlink:href="#radial-gradient-3"/><radialGradient id="radial-gradient-10" cx="-1443.33" cy="54838.01" r="8.22" gradientTransform="matrix(-0.04, -0.81, 0.05, -0.01, -2914.62, -456.91)" xlink:href="#radial-gradient"/><linearGradient id="Áåçûìÿííûé_ãðàäèåíò_6" x1="72.99" y1="40" x2="72.99" gradientUnits="userSpaceOnUse"><stop offset="0" stop-color="#363636"/><stop offset="1" stop-color="#d6d6d6"/></linearGradient><linearGradient id="Áåçûìÿííûé_ãðàäèåíò_16" x1="25.8" y1="59.59" x2="120.17" y2="-19.59" gradientTransform="translate(52.99 92.99) rotate(-90)" gradientUnits="userSpaceOnUse"><stop offset="0" stop-color="#363636"/><stop offset="0.23" stop-color="#d6d6d6"/><stop offset="0.49" stop-color="#141414"/><stop offset="0.77" stop-color="#d6d6d6"/><stop offset="0.97" stop-color="#6b6b6a"/></linearGradient><linearGradient id="Áåçûìÿííûé_ãðàäèåíò_17" x1="72.99" y1="37.85" x2="72.99" y2="2.15" gradientTransform="translate(52.99 92.99) rotate(-90)" gradientUnits="userSpaceOnUse"><stop offset="0" stop-color="#d6d6d6"/><stop offset="1" stop-color="#363636"/></linearGradient><linearGradient id="Áåçûìÿííûé_ãðàäèåíò_262" x1="72.99" y1="36.77" x2="72.99" y2="3.23" gradientTransform="translate(52.99 92.99) rotate(-90)" gradientUnits="userSpaceOnUse"><stop offset="0" stop-color="#710000"/><stop offset="0.05" stop-color="#850000"/><stop offset="0.16" stop-color="#a90000"/><stop offset="0.26" stop-color="#c60000"/><stop offset="0.37" stop-color="#da0000"/><stop offset="0.47" stop-color="#e60000"/><stop offset="0.58" stop-color="#ea0000"/><stop offset="0.67" stop-color="#e70000"/><stop offset="0.74" stop-color="#dc0000"/><stop offset="0.81" stop-color="#cb0000"/><stop offset="0.88" stop-color="#b30000"/><stop offset="0.94" stop-color="#940000"/><stop offset="1" stop-color="#710000"/></linearGradient><mask id="mask" x="8.81" y="33.11" width="128.35" height="2.93" maskUnits="userSpaceOnUse"><path class="cls-1" d="M134.63,33.38H11.25a11.33,11.33,0,0,1-2.44-.27A8.56,8.56,0,0,0,15.58,36H130.29a8.53,8.53,0,0,0,6.77-2.93A11.31,11.31,0,0,1,134.63,33.38Z"/></mask><mask id="mask-2" x="7.97" y="4.1" width="130.02" height="15.91" maskUnits="userSpaceOnUse"><path class="cls-2" d="M79.21,20c-25.08,0-49-.84-71.23-2.51H8V9.77C8,6.64,11.39,4.1,15.58,4.1H130.29c4.2,0,7.61,2.54,7.61,5.67v8.57h0C119.25,19.45,99.5,20,79.21,20Z"/></mask><linearGradient id="Áåçûìÿííûé_ãðàäèåíò_71" x1="72.99" y1="39.5" x2="72.99" y2="0.5" gradientUnits="userSpaceOnUse"><stop offset="0.03" stop-color="#6b6b6a"/><stop offset="0.31"/><stop offset="0.66"/><stop offset="0.77" stop-color="#d6d6d6"/><stop offset="1" stop-color="#878787"/></linearGradient><linearGradient id="Áåçûìÿííûé_ãðàäèåíò_74" x1="72.99" y1="10.13" x2="72.99" y2="0.72" gradientUnits="userSpaceOnUse"><stop offset="0.26" stop-color="#fff"/><stop offset="1" stop-color="#525252"/></linearGradient><linearGradient id="Áåçûìÿííûé_ãðàäèåíò_80" x1="72.99" y1="39.28" x2="72.99" y2="22.02" gradientUnits="userSpaceOnUse"><stop offset="0"/><stop offset="0.17" stop-color="#515151"/><stop offset="0.55" stop-color="#fff"/><stop offset="1" stop-color="#5c5c5c"/></linearGradient><mask id="mask-3" x="-0.05" y="4.08" width="10.59" height="15.95" maskUnits="userSpaceOnUse"><ellipse class="cls-5" cx="5.24" cy="12.05" rx="8" ry="5.27" transform="translate(-7.26 16.1) rotate(-84.44)"/></mask><mask id="mask-4" x="4.71" y="6.48" width="1.01" height="10.72" maskUnits="userSpaceOnUse"><path class="cls-6" d="M5.64,11.74c.07,1.42.09,2.77.07,3.79,0,1.62-.19,1.65-.24,1.67s-.19,0-.39-1.53c-.12-1-.23-2.31-.29-3.73S4.7,9.17,4.72,8.15c0-1.63.19-1.66.24-1.67s.19,0,.39,1.52C5.47,9,5.58,10.32,5.64,11.74Z"/></mask><mask id="mask-5" x="3.71" y="10.05" width="3.01" height="3.57" maskUnits="userSpaceOnUse"><path class="cls-7" d="M5.37,11.55a16.24,16.24,0,0,1,1,1.31c.4.61.35.7.33.73s-.07.13-.56-.31a13,13,0,0,1-1.09-1.16,14.65,14.65,0,0,1-1-1.31c-.4-.6-.35-.7-.33-.73s.07-.13.56.32A14.2,14.2,0,0,1,5.37,11.55Z"/></mask><mask id="mask-6" x="1.62" y="10.77" width="7.19" height="2.13" maskUnits="userSpaceOnUse"><path class="cls-8" d="M5.18,11.2a16.47,16.47,0,0,1,2.54-.41c1.07-.07,1.08.14,1.09.21s0,.29-1.05.72a17.7,17.7,0,0,1-2.51.76,17.79,17.79,0,0,1-2.54.41c-1.07.07-1.08-.15-1.09-.22s0-.28,1-.71A17.7,17.7,0,0,1,5.18,11.2Z"/></mask><mask id="mask-7" x="3.35" y="8.4" width="3.74" height="6.89" maskUnits="userSpaceOnUse"><path class="cls-9" d="M5,11.54c.49-.91,1-1.73,1.37-2.32.62-.94.7-.84.73-.8s.11.13-.37,1.23c-.3.7-.73,1.58-1.22,2.49s-1,1.73-1.37,2.32c-.62.93-.7.83-.73.8s-.11-.13.37-1.23C4,13.33,4.47,12.45,5,11.54Z"/></mask><mask id="mask-8" x="139.94" y="20.01" width="3.01" height="3.57" maskUnits="userSpaceOnUse"><path class="cls-10" d="M141.61,21.51a15.9,15.9,0,0,1,1,1.32c.4.6.35.69.33.73s-.06.12-.55-.32a12.64,12.64,0,0,1-1.09-1.15,14.22,14.22,0,0,1-1-1.31c-.4-.61-.35-.7-.33-.73s.07-.13.55.31A14.11,14.11,0,0,1,141.61,21.51Z"/></mask><mask id="mask-9" x="135.98" y="13.65" width="10.78" height="16.23" maskUnits="userSpaceOnUse"><ellipse class="cls-11" cx="141.37" cy="21.76" rx="8.14" ry="5.36" transform="translate(106.01 160.35) rotate(-84.44)"/></mask><mask id="mask-10" x="140.95" y="16.44" width="1.01" height="10.72" maskUnits="userSpaceOnUse"><path class="cls-12" d="M141.88,21.7c.07,1.42.09,2.77.06,3.79,0,1.62-.18,1.66-.23,1.67s-.19,0-.39-1.52c-.12-1-.23-2.32-.3-3.74s-.09-2.77-.06-3.79c0-1.62.19-1.66.23-1.67s.19,0,.39,1.52C141.71,19,141.81,20.28,141.88,21.7Z"/></mask><mask id="mask-11" x="137.86" y="20.74" width="7.19" height="2.13" maskUnits="userSpaceOnUse"><path class="cls-3" d="M141.42,21.16a16.19,16.19,0,0,1,2.53-.41c1.08-.07,1.09.15,1.09.22s0,.28-1,.71a17.87,17.87,0,0,1-2.52.76,16.19,16.19,0,0,1-2.53.41c-1.08.07-1.09-.15-1.09-.22s0-.28,1-.71A17.87,17.87,0,0,1,141.42,21.16Z"/></mask><mask id="mask-12" x="140.33" y="18.05" width="2.25" height="7.5" maskUnits="userSpaceOnUse"><path class="cls-4" d="M141.14,21.56c.28-1,.58-1.9.84-2.56.4-1,.51-1,.54-.94s.14.11-.09,1.29c-.15.74-.38,1.7-.67,2.69s-.58,1.9-.83,2.56c-.41,1-.51,1-.55.94s-.14-.11.09-1.29C140.62,23.51,140.85,22.55,141.14,21.56Z"/></mask></defs><g id="Layer_2" data-name="Layer 2"><g id="Layer_1-2" data-name="Layer 1"><rect class="cls-13" x="3.77" width="138.43" height="40" rx="9.77"/><rect class="cls-14" x="53.27" y="-48.93" width="39.43" height="137.86" rx="9.49" transform="translate(92.99 -52.99) rotate(90)"/><rect class="cls-15" x="55.14" y="-47.07" width="35.7" height="134.13" rx="7.62" transform="translate(92.99 -52.99) rotate(90)"/><rect class="cls-16" x="56.07" y="-46.14" width="33.84" height="132.27" rx="6.69" transform="translate(92.99 -52.99) rotate(90)"/><rect class="cls-17" x="56.21" y="-45.99" width="33.55" height="131.98" rx="6.55" transform="translate(92.99 -52.99) rotate(90)"/><g class="cls-18"><path class="cls-19" d="M134.73,33.38H11.25a11.33,11.33,0,0,1-2.44-.27A8.56,8.56,0,0,0,15.58,36H130.39a8.53,8.53,0,0,0,6.77-2.93A11.31,11.31,0,0,1,134.73,33.38Z"/></g><g class="cls-20"><path class="cls-19" d="M130.39,4.1H15.58C11.39,4.1,8,6.65,8,9.77V17.5C29.35,19.1,53.66,20,79.31,20c20.75,0,40.56-.59,58.68-1.66V9.77C138,6.65,134.58,4.1,130.39,4.1Z"/></g><path class="cls-21" d="M13.54,39.5a9.27,9.27,0,0,1-9.26-9.27V9.77A9.27,9.27,0,0,1,13.54.5H132.43a9.28,9.28,0,0,1,9.27,9.27V30.23a9.28,9.28,0,0,1-9.27,9.27Zm0-37.57A7.85,7.85,0,0,0,5.7,9.77V30.23a7.85,7.85,0,0,0,7.84,7.84H132.43a7.85,7.85,0,0,0,7.84-7.84V9.77a7.85,7.85,0,0,0-7.84-7.84Z"/><path class="cls-22" d="M5.49,9.48a8.07,8.07,0,0,1,8-7.77H132.43a8.07,8.07,0,0,1,8.06,8.06V10l1,.11V9.77a9.06,9.06,0,0,0-9-9H13.54a9.06,9.06,0,0,0-9,8.86Z"/><path class="cls-23" d="M140.49,22.14v8.09a8.07,8.07,0,0,1-8.06,8.06H13.54a8.07,8.07,0,0,1-8.06-8.06V22.67l-1-.11v7.67a9.06,9.06,0,0,0,9,9.05H132.43a9.06,9.06,0,0,0,9-9V22Z"/><g class="cls-24"><ellipse class="cls-19" cx="5.24" cy="12.05" rx="7.91" ry="5.21" transform="translate(-7.26 16.1) rotate(-84.44)"/></g><g class="cls-25"><path class="cls-19" d="M5,6.52c.22,0,.51,2.29.66,5.22s.07,5.36-.15,5.41S5,14.87,4.81,11.93,4.74,6.57,5,6.52Z"/></g><g class="cls-26"><path class="cls-19" d="M3.73,10.1c.08-.15.81.51,1.63,1.47a5.71,5.71,0,0,1,1.34,2c-.08.15-.81-.51-1.63-1.47A5.89,5.89,0,0,1,3.73,10.1Z"/></g><g class="cls-27"><path class="cls-19" d="M1.65,12.67c0-.33,1.57-1,3.54-1.43s3.57-.56,3.59-.23-1.57,1-3.54,1.43S1.67,13,1.65,12.67Z"/></g><g class="cls-28"><path class="cls-19" d="M3.39,15.23c-.14-.15.58-1.8,1.59-3.67S6.91,8.29,7,8.44s-.58,1.8-1.59,3.68S3.52,15.39,3.39,15.23Z"/></g><g class="cls-29"><path class="cls-19" d="M140,20.06c.08-.15.81.51,1.63,1.47a5.77,5.77,0,0,1,1.33,2c-.08.15-.8-.51-1.62-1.47A5.71,5.71,0,0,1,140,20.06Z"/></g><g class="cls-30"><ellipse class="cls-19" cx="141.37" cy="21.76" rx="8.05" ry="5.3" transform="translate(106.01 160.35) rotate(-84.44)"/></g><g class="cls-31"><path class="cls-19" d="M141.2,16.48c.22-.05.51,2.29.65,5.23s.08,5.36-.14,5.41-.52-2.29-.66-5.23S141,16.54,141.2,16.48Z"/></g><g class="cls-32"><path class="cls-19" d="M137.89,22.63c0-.33,1.56-1,3.53-1.43S145,20.64,145,21s-1.57,1-3.54,1.43S137.9,23,137.89,22.63Z"/></g><g class="cls-33"><path class="cls-19" d="M140.39,25.51a12.61,12.61,0,0,1,.77-3.93c.59-2,1.19-3.61,1.35-3.49a12.61,12.61,0,0,1-.77,3.93C141.16,24.07,140.55,25.63,140.39,25.51Z"/></g><path class="cls-19" d="M29.9,22.07v4.38H26.79V13.55h5.15a5.9,5.9,0,0,1,2.62.55,4.09,4.09,0,0,1,1.76,1.55,4.2,4.2,0,0,1,.62,2.28,3.71,3.71,0,0,1-1.35,3,5.55,5.55,0,0,1-3.7,1.13Zm0-2.4h2a1.94,1.94,0,0,0,1.38-.45,1.71,1.71,0,0,0,.47-1.28,2,2,0,0,0-.49-1.44A1.72,1.72,0,0,0,32,16H29.9Z"/><path class="cls-19" d="M42.26,24.06h5.41v2.39H39.15V13.55h3.11Z"/><path class="cls-19" d="M57,24H52.76L52,26.45H48.69l4.73-12.9h2.93l4.76,12.9H57.77Zm-3.52-2.4h2.78l-1.39-4.47Z"/><path class="cls-19" d="M66,19.15l2.37-5.6h3.36l-4.15,8.27v4.63H64.41V21.82l-4.14-8.27h3.34Z"/><path class="cls-19" d="M89,26.45H86l-4.57-8v8H78.27V13.55h3.11l4.56,8v-8H89Z"/><path class="cls-19" d="M102.48,20.27a7.59,7.59,0,0,1-.7,3.34,5.15,5.15,0,0,1-2,2.23,5.49,5.49,0,0,1-2.94.79,5.65,5.65,0,0,1-2.92-.76,5.17,5.17,0,0,1-2-2.17,7.25,7.25,0,0,1-.75-3.23v-.73a7.53,7.53,0,0,1,.7-3.34,5.17,5.17,0,0,1,2-2.24,5.64,5.64,0,0,1,3-.79,5.53,5.53,0,0,1,2.93.78,5.33,5.33,0,0,1,2,2.22,7.55,7.55,0,0,1,.72,3.3Zm-3.16-.54a5.38,5.38,0,0,0-.65-2.92,2.05,2.05,0,0,0-1.84-1c-1.55,0-2.38,1.17-2.47,3.51v.95A5.56,5.56,0,0,0,95,23.18a2.07,2.07,0,0,0,1.87,1,2,2,0,0,0,1.82-1,5.53,5.53,0,0,0,.65-2.88Z"/><path class="cls-19" d="M114.62,21.64l1.48-8.09h3.08l-2.73,12.9h-3.23l-1.73-7.35-1.69,7.35h-3.22l-2.74-12.9h3.09l1.48,8.09,1.77-8.09h2.64Z"/></g></g></svg>