<svg width="117" height="64" viewBox="0 0 117 64" fill="none" xmlns="http://www.w3.org/2000/svg">
<g clip-path="url(#clip0_71_757)">
<path d="M24 -42H93.1C103.3 -42 111.5 -33.7 111.5 -23.6V45.5C111.5 55.7 103.2 63.9 93.1 63.9H24C13.8 64 5.5 55.7 5.5 45.6V-23.5C5.5 -33.7 13.8 -42 24 -42Z" fill="url(#paint0_linear_71_757)"/>
<path d="M23.9996 63.5C14.0996 63.5 6.09961 55.5 6.09961 45.6V-23.5C6.09961 -33.4 14.0996 -41.4 23.9996 -41.4H93.0996C103 -41.4 111 -33.4 111 -23.5V45.6C111 55.5 103 63.5 93.0996 63.5H23.9996Z" fill="url(#paint1_linear_71_757)"/>
<path d="M23.9996 59.9C16.0996 59.9 9.59961 53.4 9.59961 45.5V-23.6C9.59961 -31.5 16.0996 -38 23.9996 -38H93.0996C101 -38 107.5 -31.5 107.5 -23.6V45.5C107.5 53.4 101 59.9 93.0996 59.9H23.9996Z" fill="url(#paint2_linear_71_757)"/>
<path d="M24.0004 58.2C17.0004 58.2 11.4004 52.5 11.4004 45.6V-23.5C11.4004 -30.5 17.1004 -36.1 24.0004 -36.1H93.1004C100.1 -36.1 105.7 -30.4 105.7 -23.5V45.6C105.7 52.6 100 58.2 93.1004 58.2H24.0004Z" fill="#3C3C3C"/>
<path d="M23.9996 57.9C17.1996 57.9 11.5996 52.4 11.5996 45.5V-23.6C11.5996 -30.4 17.0996 -36 23.9996 -36H93.0996C99.8996 -36 105.5 -30.5 105.5 -23.6V45.5C105.5 52.3 99.9996 57.9 93.0996 57.9H23.9996Z" fill="url(#paint3_radial_71_757)"/>
<mask id="mask0_71_757" style="mask-type:alpha" maskUnits="userSpaceOnUse" x="13" y="45" width="92" height="12">
<path d="M94.3 51.4H22.7C18.6 51.4 15 49.2 13 45.9C13.2 51.8 18.1 56.5 24 56.5H93.1C99 56.5 103.8 51.8 104.1 45.9C102.1 49.2 98.5 51.4 94.3 51.4Z" fill="#525252"/>
</mask>
<g mask="url(#mask0_71_757)">
<path d="M94.3 51.4H22.7C18.6 51.4 15 49.2 13 45.9C13.2 51.8 18.1 56.5 24 56.5H93.1C99 56.5 103.8 51.8 104.1 45.9C102.1 49.2 98.5 51.4 94.3 51.4Z" fill="white" fill-opacity="0.3"/>
</g>
<mask id="mask1_71_757" style="mask-type:alpha" maskUnits="userSpaceOnUse" x="13" y="-35" width="91" height="43">
<path d="M62.2998 7.50001C45.6998 7.50001 29.2998 7.10001 13.2998 6.40001V-23.6C13.2998 -29.5 18.0998 -34.3 23.9998 -34.3H93.0998C98.9998 -34.3 103.8 -29.5 103.8 -23.6V6.80001C90.1998 7.30001 76.1998 7.50001 62.2998 7.50001Z" fill="url(#paint4_linear_71_757)"/>
</mask>
<g mask="url(#mask1_71_757)">
<path d="M93.0998 -34.3H23.9998C18.0998 -34.3 13.2998 -29.5 13.2998 -23.6V6.40001C28.9998 7.10001 45.3998 7.50001 62.2998 7.50001C76.4998 7.50001 90.3998 7.20001 103.8 6.70001V-23.6C103.8 -29.5 98.9998 -34.3 93.0998 -34.3Z" fill="white" fill-opacity="0.3"/>
<path d="M24 63.1C14.4 63.1 6.5 55.3 6.5 45.6V-23.5C6.5 -33.2 14.3 -41 24 -41H93.1C102.7 -41 110.6 -33.2 110.6 -23.5V45.6C110.6 55.2 102.8 63.1 93.1 63.1H24V63.1ZM24 -38.4C15.8 -38.4 9.2 -31.8 9.2 -23.6V45.5C9.2 53.7 15.8 60.3 24 60.3H93.1C101.3 60.3 107.9 53.7 107.9 45.5V-23.6C107.9 -31.8 101.3 -38.4 93.1 -38.4H24V-38.4Z" fill="url(#paint5_linear_71_757)"/>
</g>
<mask id="mask2_71_757" style="mask-type:alpha" maskUnits="userSpaceOnUse" x="-1" y="8" width="17" height="23">
<path d="M13.8 25.1C10.8 30.2 5.69996 31.7 2.19996 28.5C-1.20004 25.3 -1.60004 18.5 1.39996 13.4C4.39996 8.30002 9.49996 6.80002 13 10C16.4 13.3 16.8 20 13.8 25.1Z" fill="url(#paint6_radial_71_757)"/>
</mask>
<g mask="url(#mask2_71_757)">
<path d="M15.3069 21.216C16.7406 15.3122 14.4657 9.69148 10.2257 8.6618C5.98565 7.63212 1.38618 11.5834 -0.0475547 17.4872C-1.48129 23.391 0.793654 29.0117 5.03367 30.0414C9.27368 31.0711 13.8732 27.1198 15.3069 21.216Z" fill="url(#paint7_radial_71_757)" fill-opacity="0.5"/>
</g>
<mask id="mask3_71_757" style="mask-type:alpha" maskUnits="userSpaceOnUse" x="6" y="11" width="3" height="16">
<path d="M8.29991 18.9C8.19991 20.9 8.09991 22.7 7.89991 24.1C7.59991 26.3 7.39991 26.3 7.29991 26.4C7.19991 26.4 6.99991 26.4 6.89991 24.3C6.79991 22.9 6.89991 21.1 6.89991 19.1C6.99991 17.1 7.09991 15.3 7.29991 13.9C7.59991 11.7 7.79991 11.7 7.89991 11.6C7.99991 11.6 8.19991 11.6 8.29991 13.7C8.39991 15.1 8.39991 17 8.29991 18.9Z" fill="url(#paint8_radial_71_757)"/>
</mask>
<g mask="url(#mask3_71_757)">
<path d="M7.90043 11.7C8.20043 11.7 8.40043 14.9 8.20043 18.9C8.00043 22.9 7.60043 26.3 7.30043 26.3C7.00043 26.3 6.80043 23.1 7.00043 19.1C7.20043 15 7.60043 11.7 7.90043 11.7Z" fill="url(#paint9_radial_71_757)"/>
</g>
<mask id="mask4_71_757" style="mask-type:alpha" maskUnits="userSpaceOnUse" x="5" y="16" width="5" height="6">
<path d="M7.89996 18.6C8.39996 19.3 8.89996 20 9.29996 20.5C9.79996 21.4 9.69996 21.5 9.69996 21.5C9.69996 21.5 9.59996 21.7 8.89996 21C8.49996 20.6 7.89996 20 7.39996 19.3C6.89996 18.6 6.39996 17.9 5.99996 17.4C5.49996 16.5 5.59996 16.4 5.59996 16.4C5.59996 16.4 5.69996 16.2 6.39996 16.9C6.79996 17.3 7.39996 17.9 7.89996 18.6Z" fill="url(#paint10_radial_71_757)"/>
</mask>
<g mask="url(#mask4_71_757)">
<path d="M5.60024 16.4C5.70024 16.2 6.80024 17.2 7.90024 18.6C9.00024 20 9.80024 21.3 9.70024 21.5C9.60024 21.7 8.50024 20.7 7.40024 19.3C6.30024 17.9 5.50024 16.6 5.60024 16.4Z" fill="url(#paint11_radial_71_757)"/>
</g>
<mask id="mask5_71_757" style="mask-type:alpha" maskUnits="userSpaceOnUse" x="2" y="17" width="12" height="4">
<path d="M7.69961 18.1C9.19961 17.9 10.4996 17.8 11.5996 17.8C13.1996 17.8 13.1996 18.1 13.1996 18.2C13.1996 18.3 13.1996 18.6 11.4996 19.1C10.4996 19.4 9.09961 19.7 7.59961 19.8C6.09961 20 4.79961 20.1 3.69961 20.1C2.09961 20.1 2.09961 19.8 2.09961 19.7C2.09961 19.6 2.09961 19.3 3.79961 18.8C4.79961 18.6 6.19961 18.3 7.69961 18.1Z" fill="url(#paint12_radial_71_757)"/>
</mask>
<g mask="url(#mask5_71_757)">
<path d="M2.09961 19.7C2.09961 19.2 4.59961 18.6 7.59961 18.2C10.5996 17.8 13.0996 17.9 13.0996 18.3C13.0996 18.8 10.5996 19.4 7.59961 19.8C4.59961 20.2 2.09961 20.2 2.09961 19.7Z" fill="url(#paint13_radial_71_757)"/>
</g>
<mask id="mask6_71_757" style="mask-type:alpha" maskUnits="userSpaceOnUse" x="4" y="14" width="7" height="10">
<path d="M7.29979 18.6C8.19979 17.4 8.99979 16.3 9.69979 15.6C10.7998 14.4 10.8998 14.5 10.8998 14.6C10.8998 14.6 11.0998 14.8 10.1998 16.3C9.69979 17.2 8.89979 18.4 7.99979 19.6C7.09979 20.8 6.29979 21.9 5.59979 22.6C4.49979 23.8 4.39979 23.7 4.39979 23.6C4.39979 23.6 4.19979 23.4 5.09979 21.9C5.69979 20.9 6.39979 19.8 7.29979 18.6Z" fill="url(#paint14_radial_71_757)"/>
</mask>
<g mask="url(#mask6_71_757)">
<path d="M4.40019 23.5C4.20019 23.3 5.50019 21.1 7.30019 18.6C9.10019 16.1 10.6002 14.3 10.8002 14.6C11.0002 14.8 9.70019 17 8.00019 19.4C6.20019 21.9 4.60019 23.7 4.40019 23.5Z" fill="url(#paint15_radial_71_757)"/>
</g>
<path fill-rule="evenodd" clip-rule="evenodd" d="M44.7998 14.9C44.5998 14.9 42.2998 14.4 41.9998 14.1C42.8998 14.1 45.8998 13.4 46.6998 13.4L44.7998 14.9ZM24.2998 29.3C24.2998 32.9 25.9998 36.4 28.3998 39C29.5998 40.2 31.1998 41.3 32.6998 42.2C35.9998 44.1 39.7998 44.9 43.8998 44.9C47.5998 44.9 52.7998 43 55.6998 41.1C55.8998 40.9 56.0998 40.8 56.3998 40.7C56.7998 40.5 56.8998 40.4 56.9998 40.1C56.1998 39.9 55.3998 39.5 54.7998 39.2C53.7998 38.7 53.5998 38.4 52.8998 37.9C52.5998 37.7 52.6998 37.8 52.4998 37.5C51.4998 36.2 51.8998 36.9 50.7998 35.1C50.5998 34.7 50.4998 34.4 50.2998 34C49.7998 34.1 48.2998 34.8 47.4998 35.1C46.8998 35.3 46.5998 35.4 45.9998 35.5C44.1998 35.9 42.2998 35.8 40.5998 35.2C38.4998 34.4 36.3998 32.2 36.3998 29.8C36.3998 27.8 36.8998 26.6 38.1998 25.3C39.2998 24.2 40.7998 23.4 42.5998 23.4C44.6998 23.4 49.2998 25.5 52.6998 25.5C52.9998 25.5 53.2998 24.5 53.2998 24.2C53.2998 24 53.3998 24.1 53.0998 24C52.6998 23.8 50.2998 23.8 47.9998 22C45.4998 20.1 47.3998 20 43.1998 20C36.3998 20 30.0998 26.5 33.6998 33.5C33.9998 34 34.2998 34.6 34.6998 35C35.9998 36.5 37.0998 37.4 39.0998 38.1C42.2998 39.4 46.4998 39.3 49.4998 37.7C49.7998 38.7 51.4998 39.9 51.6998 40.1C51.1998 40.4 50.4998 40.6 49.8998 40.8C49.1998 41 48.5998 41.2 47.8998 41.3C44.8998 41.9 43.1998 41.9 40.2998 41.4C39.0998 41.2 37.5998 40.7 36.4998 40.3C35.2998 39.8 34.3998 39.2 33.2998 38.5C31.2998 37.2 29.8998 35.1 28.9998 32.9C27.6998 29.7 28.5998 25.4 30.8998 22.8C31.1998 22.5 31.2998 22.3 31.6998 21.9L32.5998 21.1C33.1998 20.6 33.8998 20.1 34.4998 19.7C35.1998 19.3 35.8998 18.9 36.6998 18.6C38.9998 17.6 41.7998 17.1 44.3998 17.6C45.0998 17.7 45.4998 17.9 46.1998 18.1C46.6998 17.2 46.5998 17.1 47.3998 16.5C47.8998 16.1 48.5998 15.7 49.2998 15.5C49.8998 15.3 49.8998 15.1 50.9998 16.2C51.1998 16.4 51.3998 16.8 51.5998 17.1C51.7998 17.5 51.7998 17.7 52.1998 18C52.2998 17.4 52.3998 17.2 52.4998 16.5C52.4998 16.1 52.5998 16 52.5998 15.7C52.5998 15.3 52.4998 15.3 52.4998 14.9H53.3998C53.3998 13.5 53.3998 12.6 51.7998 11.8C49.6998 10.8 46.0998 11.3 43.8998 11.8C40.8998 12.5 40.3998 12.7 38.2998 14.1C37.6998 14.5 36.9998 14.6 36.2998 14.8C35.5998 15 34.9998 15.2 34.3998 15.5C32.9998 16.1 29.8998 18.2 28.9998 19.3C27.5998 21.1 26.1998 22.6 25.3998 25C24.6998 26.2 24.2998 27.7 24.2998 29.3Z" fill="white"/>
<path fill-rule="evenodd" clip-rule="evenodd" d="M67.9994 33.9C67.3994 33.9 66.9994 34 66.4994 33.7C66.2994 33.5 66.0994 33.4 66.0994 33V29.3C66.0994 28.3 67.2994 28.3 67.8994 28.3C69.2994 28.3 69.1994 30.8 69.1994 31.9C69.1994 32.8 68.8994 33.9 67.9994 33.9ZM62.8994 36.2H65.7994C65.7994 35.9 65.8994 35.4 65.9994 35.1C66.1994 35.2 66.6994 36.2 67.9994 36.4C68.9994 36.5 69.7994 36.3 70.5994 35.9C73.3994 34.3 73.4994 25.5 68.3994 25.8C66.8994 25.9 66.8994 26.4 66.1994 26.9V21.4H62.9994V36.2H62.8994Z" fill="white"/>
<path fill-rule="evenodd" clip-rule="evenodd" d="M83.3 33.1C83.3 31.6 84.9 31.8 86 31.8V33.1C86 33.5 85.2 34 84.7 34C84 34 83.3 34 83.3 33.1ZM80.5 28.8V29.1H83.6C83.8 28 83.9 28.1 85 28.1C86 28.1 85.9 29.4 85.9 30.1C83.5 30.1 80 30.1 80 33.3C80 36.6 84 37.1 85.4 35.6C85.6 35.4 85.8 35.1 85.9 34.8C86.1 35 86.4 36.1 86.4 36.2H89.6C89.6 35.8 89.4 35.5 89.3 35.1C88.8 33.1 89.3 29.4 88.9 28.3C88.7 27.6 88.3 27 87.7 26.6C87.1 26.2 86.5 25.9 85.6 25.8C83.5 25.6 80.5 26.3 80.5 28.8Z" fill="white"/>
<path fill-rule="evenodd" clip-rule="evenodd" d="M54.7996 31.1C54.7996 30.6 54.8996 29.7 55.0996 29.3C55.4996 28.2 55.9996 28.3 56.8996 28.3C57.3996 28.3 57.7996 28.8 57.9996 29.2C58.4996 30.2 58.6996 33.9 56.7996 33.9C56.0996 33.9 55.4996 33.9 55.0996 33C54.9996 32.5 54.7996 31.6 54.7996 31.1ZM51.5996 31C51.5996 33.3 52.3996 35.1 54.2996 36C55.7996 36.7 58.4996 36.7 60.0996 35.1C62.3996 32.8 62.0996 27.5 58.6996 26.1C58.1996 25.9 57.0996 25.7 56.4996 25.7C55.6996 25.8 54.9996 25.8 54.3996 26.1C52.5996 26.9 51.5996 28.8 51.5996 31Z" fill="white"/>
<path fill-rule="evenodd" clip-rule="evenodd" d="M76.9994 27.2L76.8994 26H73.8994V36.2H77.0994V29.7C77.0994 28.5 78.9994 28.8 79.4994 28.8L79.8994 25.9C78.8994 25.7 78.1994 25.7 77.4994 26.6L76.9994 27.2Z" fill="white"/>
<path fill-rule="evenodd" clip-rule="evenodd" d="M84.0002 40.2C84.0002 39.7 83.9002 39.6 83.9002 39.2C82.6002 39.2 81.7002 39 81.7002 39.5V46.4H84.0002V41.5C84.0002 41 85.9002 40.2 85.9002 42.1V46.4H88.1002V41.7C88.1002 40.3 87.4002 39.1 85.9002 39.1C84.9002 39.1 84.4002 39.7 84.0002 40.2Z" fill="white"/>
<path fill-rule="evenodd" clip-rule="evenodd" d="M65.9998 44.3C65.9998 43.9 66.2998 43.4 66.5998 43.4H67.8998V44C67.7998 45 65.9998 45.3 65.9998 44.3ZM63.9998 41.5C66.7998 41.5 65.7998 41.9 66.3998 41.1C66.5998 40.9 67.8998 40.1 67.8998 42.2C65.9998 42.2 63.7998 42.1 63.7998 44.6C63.7998 46.4 66.0998 47.1 67.2998 46.2C67.6998 45.9 67.6998 45.6 67.9998 45.4C67.9998 45.9 68.1998 46 68.2998 46.4H70.4998C69.8998 43.9 70.1998 44.2 70.0998 41.6C69.9998 38.2 63.9998 38.5 63.9998 41.5Z" fill="white"/>
<path fill-rule="evenodd" clip-rule="evenodd" d="M91.2996 42.9C91.2996 40.3 92.8996 40.9 93.1996 41.1C93.7996 41.7 93.9996 44.7 92.5996 44.7C91.6996 44.8 91.2996 44.1 91.2996 42.9ZM89.0996 42.5C89.0996 43.7 89.1996 44.7 90.0996 45.6C91.2996 46.9 93.7996 46.9 94.9996 45.6C96.6996 43.9 96.5996 39.1 92.3996 39.1C90.4996 39.1 89.0996 40.6 89.0996 42.5Z" fill="white"/>
<path fill-rule="evenodd" clip-rule="evenodd" d="M71.0994 41.3C71.0994 44.2 74.9994 43 74.9994 44.5C74.9994 45.1 73.1994 45.6 72.9994 44.1H70.8994C70.8994 47.5 77.1994 47.3 77.1994 44.4C77.1994 41.6 73.2994 42.7 73.2994 41.3C73.2994 40.8 74.8994 40.3 74.8994 41.6H77.0994C77.0994 38.2 71.0994 38.6 71.0994 41.3Z" fill="white"/>
<path fill-rule="evenodd" clip-rule="evenodd" d="M56.8994 42.6C56.8994 46.9 60.5994 47.1 62.2994 45.9C62.7994 45.5 63.2994 44.9 63.2994 44C63.2994 43.6 62.7994 43.7 62.3994 43.7C61.9994 43.7 61.5994 43.7 61.1994 43.7C61.0994 44.6 60.7994 44.7 60.0994 44.7C58.7994 44.7 58.7994 40.8 60.0994 40.8C60.6994 40.8 61.0994 41 61.1994 41.9H63.2994C63.2994 37.9 56.8994 38.2 56.8994 42.6Z" fill="white"/>
<path fill-rule="evenodd" clip-rule="evenodd" d="M78.2002 46.4H80.5002V39.2H78.2002V46.4Z" fill="white"/>
<path fill-rule="evenodd" clip-rule="evenodd" d="M47.3994 19.4C47.6994 19.9 48.9994 20.6 49.5994 20.9C52.1994 21.9 54.7994 22 57.1994 20.6C57.3994 20.5 57.4994 20.4 57.7994 20.3C57.8994 20.2 57.9994 20.2 58.0994 20.1C58.3994 19.9 58.1994 20.1 58.2994 19.8L56.7994 20.3C56.0994 20.5 55.8994 20.5 54.9994 20.5C55.1994 20.1 55.9994 19.8 56.7994 18.7C56.9994 18.4 56.9994 18.1 57.1994 17.8C56.7994 17.8 56.4994 18.1 56.1994 18.3C53.8994 19.7 52.7994 19.9 50.0994 19.9C48.8994 19.9 47.8994 19.4 47.3994 19.4Z" fill="white"/>
<path fill-rule="evenodd" clip-rule="evenodd" d="M78.2002 37.7H80.5002V36.1H78.2002V37.7Z" fill="white"/>
<path fill-rule="evenodd" clip-rule="evenodd" d="M47.3998 19.4V19.3L47.2998 19.4H47.3998Z" fill="white"/>
</g>
<defs>
<linearGradient id="paint0_linear_71_757" x1="58.5348" y1="64.0063" x2="58.5348" y2="-42" gradientUnits="userSpaceOnUse">
<stop stop-color="#363636"/>
<stop offset="1" stop-color="#D6D6D6"/>
</linearGradient>
<linearGradient id="paint1_linear_71_757" x1="7.52851" y1="53.8021" x2="109.54" y2="-31.7959" gradientUnits="userSpaceOnUse">
<stop stop-color="#363636"/>
<stop offset="0.2341" stop-color="#D6D6D6"/>
<stop offset="0.4881" stop-color="#141414"/>
<stop offset="0.7738" stop-color="#D6D6D6"/>
<stop offset="0.9702" stop-color="#6B6B6A"/>
</linearGradient>
<linearGradient id="paint2_linear_71_757" x1="58.5344" y1="59.9459" x2="58.5344" y2="-37.9397" gradientUnits="userSpaceOnUse">
<stop stop-color="#D6D6D6"/>
<stop offset="1" stop-color="#363636"/>
</linearGradient>
<radialGradient id="paint3_radial_71_757" cx="0" cy="0" r="1" gradientUnits="userSpaceOnUse" gradientTransform="translate(58.5344 11.0031) scale(70.6208)">
<stop offset="0.167" stop-color="#E30000"/>
<stop offset="0.2634" stop-color="#DE0000"/>
<stop offset="0.3826" stop-color="#CF0000"/>
<stop offset="0.5138" stop-color="#B50000"/>
<stop offset="0.6537" stop-color="#920000"/>
<stop offset="0.7988" stop-color="#660000"/>
<stop offset="0.8591" stop-color="#510000"/>
</radialGradient>
<linearGradient id="paint4_linear_71_757" x1="58.5346" y1="7.54611" x2="58.5346" y2="-34.2661" gradientUnits="userSpaceOnUse">
<stop stop-color="#363636"/>
<stop offset="0.2353" stop-color="#454545"/>
<stop offset="0.6887" stop-color="#6D6D6D"/>
<stop offset="1" stop-color="#8C8C8C"/>
</linearGradient>
<linearGradient id="paint5_linear_71_757" x1="58.5348" y1="63.0534" x2="58.5348" y2="-41.0471" gradientUnits="userSpaceOnUse">
<stop offset="0.0297619" stop-color="#6B6B6A"/>
<stop offset="0.3095"/>
<stop offset="0.6627"/>
<stop offset="0.7659" stop-color="#D6D6D6"/>
<stop offset="1" stop-color="#878787"/>
</linearGradient>
<radialGradient id="paint6_radial_71_757" cx="0" cy="0" r="1" gradientUnits="userSpaceOnUse" gradientTransform="translate(7.64689 19.3073) rotate(-59.9089) scale(10.6986 8.27889)">
<stop stop-color="white"/>
<stop offset="0.00738025" stop-color="#F6F6F6"/>
<stop offset="0.0476763" stop-color="#C8C8C8"/>
<stop offset="0.0930898" stop-color="#9D9D9D"/>
<stop offset="0.1419" stop-color="#777777"/>
<stop offset="0.195" stop-color="#575757"/>
<stop offset="0.2537" stop-color="#3B3B3B"/>
<stop offset="0.32" stop-color="#252525"/>
<stop offset="0.3974" stop-color="#141414"/>
<stop offset="0.4931" stop-color="#090909"/>
<stop offset="0.6274" stop-color="#020202"/>
<stop offset="1"/>
</radialGradient>
<radialGradient id="paint7_radial_71_757" cx="0" cy="0" r="1" gradientUnits="userSpaceOnUse" gradientTransform="translate(7.62967 19.3516) rotate(13.6499) scale(7.90036 11.0005)">
<stop stop-color="white"/>
<stop offset="0.609375" stop-color="white" stop-opacity="0.203125"/>
<stop offset="1" stop-color="white" stop-opacity="0"/>
</radialGradient>
<radialGradient id="paint8_radial_71_757" cx="0" cy="0" r="1" gradientUnits="userSpaceOnUse" gradientTransform="translate(7.63072 19.0097) rotate(-87.6588) scale(9.22368 0.689327)">
<stop stop-color="#8F8F8F"/>
<stop offset="0.1651" stop-color="#636363"/>
<stop offset="0.3304" stop-color="#404040"/>
<stop offset="0.497" stop-color="#242424"/>
<stop offset="0.6639" stop-color="#101010"/>
<stop offset="0.8312" stop-color="#040404"/>
<stop offset="1"/>
</radialGradient>
<radialGradient id="paint9_radial_71_757" cx="0" cy="0" r="1" gradientUnits="userSpaceOnUse" gradientTransform="translate(7.60043 19) rotate(90) scale(7.3 0.680506)">
<stop offset="0.1875" stop-color="white"/>
<stop offset="0.421875" stop-color="white" stop-opacity="0.203125"/>
<stop offset="1" stop-color="white" stop-opacity="0"/>
</radialGradient>
<radialGradient id="paint10_radial_71_757" cx="0" cy="0" r="1" gradientUnits="userSpaceOnUse" gradientTransform="translate(7.63045 19.0097) rotate(-128.211) scale(4.11518 0.465574)">
<stop stop-color="#8F8F8F"/>
<stop offset="0.1651" stop-color="#636363"/>
<stop offset="0.3304" stop-color="#404040"/>
<stop offset="0.497" stop-color="#242424"/>
<stop offset="0.6639" stop-color="#101010"/>
<stop offset="0.8312" stop-color="#040404"/>
<stop offset="1"/>
</radialGradient>
<radialGradient id="paint11_radial_71_757" cx="0" cy="0" r="1" gradientUnits="userSpaceOnUse" gradientTransform="translate(7.65024 18.95) rotate(90) scale(2.57548 2.05844)">
<stop offset="0.1875" stop-color="white"/>
<stop offset="0.421875" stop-color="white" stop-opacity="0.203125"/>
<stop offset="1" stop-color="white" stop-opacity="0"/>
</radialGradient>
<radialGradient id="paint12_radial_71_757" cx="0" cy="0" r="1" gradientUnits="userSpaceOnUse" gradientTransform="translate(7.63016 19.0098) rotate(172.58) scale(6.9877 0.910208)">
<stop stop-color="#8F8F8F"/>
<stop offset="0.1651" stop-color="#636363"/>
<stop offset="0.3304" stop-color="#404040"/>
<stop offset="0.497" stop-color="#242424"/>
<stop offset="0.6639" stop-color="#101010"/>
<stop offset="0.8312" stop-color="#040404"/>
<stop offset="1"/>
</radialGradient>
<radialGradient id="paint13_radial_71_757" cx="0" cy="0" r="1" gradientUnits="userSpaceOnUse" gradientTransform="translate(7.59961 19.017) rotate(90) scale(1.07159 5.5)">
<stop offset="0.1875" stop-color="white"/>
<stop offset="0.421875" stop-color="white" stop-opacity="0.203125"/>
<stop offset="1" stop-color="white" stop-opacity="0"/>
</radialGradient>
<radialGradient id="paint14_radial_71_757" cx="0" cy="0" r="1" gradientUnits="userSpaceOnUse" gradientTransform="translate(7.63039 19.0096) rotate(125.812) scale(6.90799 0.562817)">
<stop stop-color="#8F8F8F"/>
<stop offset="0.1651" stop-color="#636363"/>
<stop offset="0.3304" stop-color="#404040"/>
<stop offset="0.497" stop-color="#242424"/>
<stop offset="0.6639" stop-color="#101010"/>
<stop offset="0.8312" stop-color="#040404"/>
<stop offset="1"/>
</radialGradient>
<radialGradient id="paint15_radial_71_757" cx="0" cy="0" r="1" gradientUnits="userSpaceOnUse" gradientTransform="translate(7.60021 19.0412) rotate(90) scale(4.47392 3.22032)">
<stop offset="0.1875" stop-color="white"/>
<stop offset="0.421875" stop-color="white" stop-opacity="0.203125"/>
<stop offset="1" stop-color="white" stop-opacity="0"/>
</radialGradient>
<clipPath id="clip0_71_757">
<rect width="117" height="64" fill="white"/>
</clipPath>
</defs>
</svg>
