<svg width="190" height="48" viewBox="0 0 190 48" fill="none" xmlns="http://www.w3.org/2000/svg">
<path d="M0 0H186C188.209 0 190 1.79086 190 4V44C190 46.2091 188.209 48 186 48H0V0Z" fill="#383B40"/>
<path fill-rule="evenodd" clip-rule="evenodd" d="M177.16 48H40.84C38.7194 48 37 46.2806 37 44.16V3.84C37 1.71936 38.7194 0 40.84 0H177.16C179.281 0 181 1.71936 181 3.84V44.16C181 46.2806 179.281 48 177.16 48Z" fill="#383B40"/>
<path d="M53.849 38.8224L53.1866 35.8531H49.6606L49.0241 38.8224H45.5239L49.6596 21.1392H53.3182L57.5604 38.8224H53.849ZM52.6558 33.1229C52.2842 31.4265 51.9137 29.7562 51.6487 28.033C51.5422 27.264 51.4366 26.4691 51.3569 25.7002C51.1975 28.1923 50.6945 30.6576 50.1905 33.1238H52.6558V33.1229Z" fill="white"/>
<path d="M66.0537 25.1424C65.3375 24.5328 64.5157 24.0029 63.5356 24.0029C62.5017 24.0029 61.7855 24.6922 61.7855 25.7261C61.7855 28.775 67.0876 28.7222 67.0876 33.6528C67.0876 36.7018 65.2578 39.1142 62.0505 39.1142C60.9637 39.1142 59.9029 38.8224 59.0015 38.2128V34.872C59.7964 35.4019 60.6191 35.8262 61.5993 35.8262C62.7925 35.8262 63.6671 35.0842 63.6671 33.864C63.6671 33.5462 63.6143 33.2544 63.4818 32.9626C63.1641 32.3002 62.1829 31.7165 61.5993 31.319C59.6111 29.9405 58.3381 28.6675 58.3381 26.0966C58.3381 23.3126 59.9557 20.8742 62.9509 20.8742C64.1442 20.8742 65.0188 21.1392 66.0527 21.7229V25.1424H66.0537Z" fill="white"/>
<path d="M75.2886 38.8224L72.0275 29.8349V38.8224H68.5283V21.1392H72.0275V29.04L74.9699 21.1392H78.5488L75.2877 29.3049L78.9462 38.8224H75.2886Z" fill="white"/>
<path d="M90.7351 28.9872C90.762 29.4374 90.762 29.8886 90.762 30.3389C90.762 31.585 90.7092 32.8579 90.4442 34.0771C89.8606 36.8074 88.0846 39.1142 85.0894 39.1142C80.3172 39.1142 78.8062 33.9706 78.8062 30.047C78.8062 25.991 80.1319 20.8742 85.0894 20.8742C87.7937 20.8742 89.5428 22.5706 90.2858 25.0627L86.8922 26.3885C86.7329 25.3546 86.442 23.9491 85.1162 23.9491C82.7306 23.9491 82.5444 28.3238 82.5444 29.9942C82.5444 31.7443 82.6241 35.9328 85.1422 35.9328C87.0506 35.9328 87.2628 33.5472 87.2897 32.1149H85.0625V28.9862H90.7351V28.9872Z" fill="white"/>
<path d="M99.3425 38.8224L98.6801 35.8531H95.154L94.5175 38.8224H91.0183L95.154 21.1392H98.8125L103.055 38.8224H99.3425ZM98.1502 33.1229C97.7786 31.4265 97.4081 29.7562 97.1431 28.033C97.0365 27.264 96.931 26.4691 96.8513 25.7002C96.6919 28.1923 96.1889 30.6576 95.6849 33.1238H98.1502V33.1229Z" fill="white"/>
<path d="M116.478 38.8224L115.604 26.0966C115.524 27.4752 115.312 28.8269 115.074 30.1795L113.51 38.8224H110.833L109.189 30.816C109.004 29.9414 108.818 29.0659 108.739 28.1645L108.527 26.0966L107.97 38.8224H104.232L105.77 21.1392H110.382L112.106 31.585L113.511 21.1392H118.23L120.059 38.8224H116.478Z" fill="white"/>
<path d="M125.242 21.1392C126.171 21.1392 127.735 21.192 128.954 22.3853C129.908 23.3136 130.412 24.7709 130.412 26.2032C130.412 27.0778 130.227 27.9533 129.59 28.7222C129.298 29.0669 128.848 29.4912 128.185 29.7562C129.324 30.1805 129.881 30.9754 130.093 31.32C130.597 32.1686 130.703 33.1498 130.703 33.8122C130.703 35.1379 130.358 36.3312 129.377 37.3114C128.025 38.663 126.248 38.8224 125.215 38.8224H121.503V21.1392H125.242ZM125.004 28.4035C125.561 28.3766 126.198 28.1386 126.542 27.7939C127.046 27.2899 127.099 26.5478 127.099 26.1504C127.099 25.7261 127.046 25.0637 126.542 24.5597C126.25 24.2678 125.773 24.0298 125.004 24.0298V28.4035ZM125.004 35.8003C125.561 35.8003 126.198 35.615 126.595 35.2435C126.967 34.8989 127.257 34.2893 127.257 33.5203C127.257 32.6717 126.966 32.0352 126.568 31.6646C126.144 31.2931 125.507 31.1078 125.004 31.1078V35.8003V35.8003Z" fill="white"/>
<path d="M132.395 38.8224V21.1392H135.894V35.5085H139.553V38.8224H132.395Z" fill="white"/>
<path d="M140.994 38.8224V21.1392H148.019V24.4262H144.493V28.2442H147.595V31.585H144.493V35.5613H148.072V38.8224H140.994Z" fill="white"/>
<path d="M156.363 38.8224L153.261 30.6835V38.8224H149.762V21.1392H153.553C154.852 21.1392 156.283 21.2457 157.397 21.9878C158.802 22.9161 159.491 24.6394 159.491 26.2829C159.491 28.2979 158.696 29.7293 156.973 30.7901L160.048 38.8234H156.363V38.8224ZM153.26 28.7481C153.445 28.775 153.657 28.775 153.844 28.775C155.355 28.775 156.097 27.7411 156.097 26.3098C156.097 24.8784 155.46 23.8973 153.923 23.8973H153.261V28.7481H153.26Z" fill="white"/>
<path d="M168.54 25.1424C167.824 24.5328 167.002 24.0029 166.022 24.0029C164.988 24.0029 164.272 24.6922 164.272 25.7261C164.272 28.775 169.574 28.7222 169.574 33.6528C169.574 36.7018 167.744 39.1142 164.537 39.1142C163.45 39.1142 162.39 38.8224 161.488 38.2128V34.872C162.283 35.4019 163.106 35.8262 164.086 35.8262C165.279 35.8262 166.154 35.0842 166.154 33.864C166.154 33.5462 166.101 33.2544 165.968 32.9626C165.651 32.3002 164.67 31.7165 164.086 31.319C162.098 29.9405 160.825 28.6675 160.825 26.0966C160.825 23.3126 162.442 20.8742 165.438 20.8742C166.631 20.8742 167.505 21.1392 168.539 21.7229V25.1424H168.54Z" fill="white"/>
<path d="M172.282 25.8173C173.554 25.8173 174.584 24.7866 174.584 23.5152C174.584 22.2438 173.554 21.2131 172.282 21.2131C171.011 21.2131 169.98 22.2438 169.98 23.5152C169.98 24.7866 171.011 25.8173 172.282 25.8173Z" fill="white"/>
<path d="M67.1613 17.6659L65.5264 14.7082H64.2285V17.6659H62.4563V9.34177H66.3501C68.0848 9.34177 69.1581 10.4774 69.1581 12.025C69.1581 13.4851 68.2221 14.2848 67.3235 14.496L69.208 17.6659H67.1613ZM67.336 12.0134C67.336 11.327 66.7993 10.9027 66.1005 10.9027H64.2285V13.1491H66.1005C66.7993 13.1482 67.336 12.7248 67.336 12.0134Z" fill="white"/>
<path d="M71.729 17.6659V9.34177H77.6196V10.9018H73.5012V12.649H77.5322V14.209H73.5012V16.1059H77.6196V17.6659H71.729Z" fill="white"/>
<path d="M82.5865 17.6659L79.3792 9.34177H81.3884L83.6972 15.7315L86.006 9.34177H88.0153L84.8079 17.6659H82.5865Z" fill="white"/>
<path d="M90.0361 17.6659V9.34177H91.8083V17.6659H90.0361Z" fill="white"/>
<path d="M94.7036 17.6659V9.34177H100.594V10.9018H96.4758V12.649H100.507V14.209H96.4758V16.1059H100.594V17.6659H94.7036Z" fill="white"/>
<path d="M109.592 17.6659L108.132 11.9501L106.684 17.6659H104.8L102.416 9.34177H104.401L105.861 15.3571L107.446 9.34177H108.831L110.403 15.3571L111.864 9.34177H113.848L111.477 17.6659H109.592Z" fill="white"/>
<path d="M115.932 17.6659V9.34177H121.823V10.9018H117.704V12.649H121.735V14.209H117.704V16.1059H121.823V17.6659H115.932Z" fill="white"/>
<path d="M124.456 17.6659V9.34177H127.738C130.347 9.34177 132.156 11.0016 132.156 13.4976C132.156 16.0186 130.347 17.6659 127.751 17.6659H124.456V17.6659ZM130.348 13.4986C130.348 12.0384 129.449 10.9027 127.752 10.9027H126.229V16.1069H127.739C129.387 16.1059 130.348 14.9213 130.348 13.4986Z" fill="white"/>
<path d="M139.12 17.6659V9.34177H143.5C145.085 9.34177 145.897 10.3526 145.897 11.4634C145.897 12.4992 145.248 13.2106 144.461 13.3728C145.36 13.5101 146.059 14.3712 146.059 15.407C146.059 16.6666 145.235 17.6659 143.638 17.6659H139.12ZM144.087 11.7763C144.087 11.2646 143.713 10.9027 143.113 10.9027H140.892V12.6499H143.113C143.713 12.6499 144.087 12.312 144.087 11.7763ZM144.249 15.1574C144.249 14.6333 143.875 14.2099 143.188 14.2099H140.892V16.1069H143.188C143.85 16.1059 144.249 15.7565 144.249 15.1574Z" fill="white"/>
<path d="M150.589 17.6659V14.2589L147.394 9.34177H149.416L151.475 12.6739L153.534 9.34177H155.544L152.361 14.2589V17.6659H150.589Z" fill="white"/>
</svg>
